<?xml version="1.0" encoding="utf-8"?>

<!DOCTYPE svg PUBLIC "-//W3C//DTD SVG 1.1//EN" "http://www.w3.org/Graphics/SVG/1.1/DTD/svg11.dtd">
<svg version="1.1" id="Layer_1" xmlns="http://www.w3.org/2000/svg" xmlns:xlink="http://www.w3.org/1999/xlink" x="0px" y="0px"
	 viewBox="0 0 886.461 1627.438" enable-background="new 0 0 886.461 1627.438" xml:space="preserve">
<g>
	<path d="M469.41,1521.716c0.005,0,0.009-0.001,0.014-0.001c-0.001,0.001-0.008,0.007-0.007,0.007c0,0,0.008-0.006,0.01-0.008
		c0.063-0.004,0.127-0.008,0.191-0.012c0.019-0.069,0.035-0.138,0.054-0.208L469.41,1521.716z"/>
	<path d="M220.294,768.501c0.003,0.006,0.006,0.012,0.01,0.019c-0.005-0.004-0.016-0.014-0.016-0.014
		c-0.001,0.001,0.012,0.014,0.021,0.023c0.029,0.057,0.057,0.111,0.086,0.168c0.049,0.015,0.094,0.033,0.142,0.048L220.294,768.501z
		"/>
	<path d="M847.766,772.803c-6.944-8.448-15.814-15.583-19.413-27.128c-11.669-37.427-127.862,121.31-158.299,121.207l-0.003,0.002
		c-1.53-2.319-2.324-1.207-3.011,0.406c-0.107,0.003-0.212,0.001-0.321,0.009l0.211,0.253c-15.678,2.688-23.49,15.699-33.671,25.601
		l-0.195-0.064c-0.033,0.201-0.064,0.293-0.048,0.302c-0.004,0.004-0.009,0.008-0.013,0.013l0.013-0.011
		c0.018,0.008,0.09-0.076,0.274-0.23c-6.168,7.954-16.343,11.768-21.363,21.13c-1.291,2.407-5.105,4.951-8.837,3.272
		c-4.512-2.03-4.858-19.774,5.348-25.718c16.205-9.438,0.088-15.826-4.395-35.782c-3.879-17.268-9.914-34.052-15.096-51.027
		c-11.88-6.357-8.072-21.762-20.813-39.083l0.247,0.255c0.093-0.314,0.186-0.628,0.279-0.941c-0.227,0.297-0.391,0.461-0.41,0.627
		c-2.114-4.933-3.74-10.173-6.569-14.655c-2.737-4.337-0.477-11.575-5.498-13.442c-21.882-8.137-30.538-57.785-43.762-79.39
		c-44.197-72.207-25.174-93.623-59.244-120.591c-16.22-12.839-23.731-39.789-51.912-34.95c-4.103-12.686-16.527-5.779-24.537-9.967
		c-8.064-4.217-15.771-7.253-20.479-15.743c-3.911-7.051-8.182-18.081-13.826-19.134c-12.285-2.293-6.282-8.895-4.528-12.626
		c5.44-11.57,4.906-26.705,21.17-32.409c4.108-1.441,13.091-6.693,11.795-15.788c-2.401-2.821-4.29-6.236,0.616-7.863
		c24.593-8.157,2.367-26.478,6.339-31.501c14.326-18.12-18.84-44.203-0.505-60.82c-5.758-3.914-11.929,1.915-16.631-3.397
		c-25.644-28.972-71.56-28.169-77.776-18.699c-3.385,5.158-6.854,0.487-6.165-4.618c0.893-6.624-3.802-8.279-7.598-6.236
		c-27.217,14.644-50.677,24.002-63.886,74.728c-5.779,22.193,4.591,26.174,14.788,63.357c6.954,25.357,28.475,17.384,34.216,31.675
		l-0.066-0.064c-0.031-0.044-0.101-0.098-0.203-0.198l-0.259,0.578c0.155-0.093,0.267-0.157,0.345-0.205
		c3.175,13.045-2.171,52.321,10.523,77.822l-0.021-0.019c-0.012-0.031-0.094-0.088-0.255-0.24l0.011,0.318
		c0.079-0.019,0.135-0.028,0.176-0.036c4.555,6.847,8.458,13.396-2.034,19.114c-5.342,2.911-8.568,9.17-4.827,13.803
		c4.264,5.28,7.565-1.929,11.44-3.748c5.732-2.691,14.864-7.769,17.063,0.91c8.871,35.015-3.505,78.429,8.903,78.92
		c18.574,0.735-10.659-70.915,12.96-83.664c7.998-4.317,11.697,2.005,16.202,5.792c2.812,2.364,6.371,4.139,7.665,8.367
		c3.195,10.44,22.22,12.491,21.244,4.366c-1.98-16.49-39.346-16.146-23.551-41.566l-0.281,0.24
		c3.263-11.787,11.167-22.413,8.603-35.697c-1.366-7.076,8.844-7.993,9.364,0.485c0.359,5.858-2.034,11.745,0.781,17.61
		c12.803,26.674-0.079,50.368,10.17,51.122c16.631,1.224-10.735-54.468,12.081-43.88c14.386,6.676,26.96,17.578,41.427,22.349
		c28.297,9.331,40.225,30.963,50.232,55.508l-0.071-0.056c-0.042-0.04-0.111-0.087-0.236-0.186l-0.063,0.604
		c0.122-0.12,0.205-0.195,0.262-0.25c6.84,11.761,8.785,25.366,14.49,37.731c8.872,19.231,19.101,37.561,29.785,55.733l-0.06-0.08
		c-0.022-0.047-0.086-0.115-0.172-0.231l-0.482,0.399c0.444-0.058,0.622-0.07,0.656-0.119
		c12.604,19.721,19.948,42.123,30.981,62.728c48.465,90.509,48.489,112.463,58.072,136.808
		c-15.431-4.106-16.814-17.268-17.477-28.588c-0.878-15.003-11.609-22.741-18.944-33.168c-3.55-5.046-8.314-1.809-6.693,1.887
		c5.118,11.675,3.936,24.348,5.912,36.515c-0.1,0.026-0.177,0.045-0.177,0.044c10.765,29.052,17.671,59.209,25.482,89.108
		c0.641,2.455-2.495,6.693,2.738,6.992c7.286,0.416,1.214-10.507,6.832-11.452c16.27,16.765,18.095,28.516,8.146,46.463
		c-2.495,4.5-5.461,5.815-10.118,6.089c-14.613,0.86-5.273,13.721-12.696,20.362c-10.332-12.49-3.316-46.169-22.654-43.932
		c-11.637,1.346,0.884-13.004,9.478-13.804c25.059-2.333-51.297-163.087-54.203-170.446c-4.22-10.69-12.793-18.392-17.606-28.543
		c-0.261-0.067-0.523-0.134-0.785-0.201c0.179-0.005,0.358-0.011,0.518-0.035c5.81,2.59,4.131-1.879,4.071-4.498
		c-0.104-4.521-1.636-10.087-6.168-9.804c-7.753,0.484-8.248-5.169-10.423-9.418c-19.569-38.233-46.558-55.559-60.188-100.153
		l0.034,0.035c0.021,0.036,0.092,0.094,0.231,0.238l0.076-0.341c-0.084,0.018-0.136,0.026-0.187,0.035
		c-5.915-15.19-2.994-32.234-9.564-47.184c-4.388-9.985-4.448-19.868-1.333-29.854c7.041-22.571-21.214-6.223-15.134,15.189
		c4.593,16.174,0.42,33.122,5.327,49.125l-0.041-0.025c-0.039-0.042-0.133-0.08-0.301-0.182l0.138,0.628
		c0.016-0.033,0.029-0.057,0.043-0.085c9.88,27.588-17.912,58.096-9.21,80.004c8.804,22.164-5.476,31.513,3.382,61.436
		c0.93,3.141,0.033,6.477-4.802,3.815c-2.025-1.114-4.04-1.239-5.442,1.252c-7.972,14.17-9.756-2.912-17.71-11.987l0.072,0.04
		c0.049,0.033,0.125,0.069,0.274,0.152l-0.214-0.559c-0.023,0.063-0.036,0.093-0.054,0.136
		c-5.232-8.275-66.508-105.479-69.798-109.48c-10.553-12.836-10.046-32.702-27.104-40.887c-0.705-0.338-1.392-1.15-1.663-1.895
		c-4.86-13.368-11.226-25.754-21.467-35.991c-11.021-11.017,10.721-3.633,2.242-19.039c-2.855-5.187-9.78-12.902-8.409-14.797
		c5.117-7.077,3.806-16.668,10.172-22.743c-3.397-6.315-3.567-11.92,0.249-18.902c9.391-17.179-1.439-42.392-12.846-7.68
		c-7.974,24.267-27.845-13.226-54.949-8.615c-11.26,1.915-17.887-3.069-21.588-11.311c-8.848-19.705-25.659-35.571-28.104-58.321
		c-1.411-13.125-15.785-16.329-15.559-36.617c0.135-12.143-2.314-24.314-5.279-35.32c-8.455-31.384-11.816-63.561-18.453-95.166
		c-6.683-31.821,39.772-22.349,27.903-56.989c-1.46-4.261,1.58-5.74,4.933-7.489c20.834-10.861,9.627-18.034,9.263-145.999
		c-0.018-6.236-2.976-9.56-7.998-9.202c-5.966,0.425-15.365-0.01-15.044,8.498c3.333,88.198-19.266,23.241-14.305,97.089
		c0.384,5.721-0.235,9.457-7.172,7.769c-19.956-4.856-31.323,13.497-47.927,17.763c-4.635,1.191-0.505,9.337-5.091,16.066
		c-19.94,29.255,14.192,39.208,7.4,60.921c-6.079,19.435,4.944,24.712-8.824,27.717c-7.047,1.538-16.245,6.188-10.461,14.632
		c6.877,10.042-0.027-1.565,14.635,128.307c8.318,73.678,4.441,30.185,39.938,103.404c5.001,10.316,16.078,16.708,18.004,28.832
		l-0.038-0.039c-0.024-0.036-0.092-0.094-0.228-0.233l-0.062,0.334c0.161-0.034,0.238-0.043,0.276-0.058
		c17.853,22.703,32.891,47.316,48.722,71.4c9.891,15.047,18.397-12.48,24.811,125.43c0.447,9.62,6.81,19.282,6.064,28.57
		c-1.331,16.572,6.619,26.06,18.837,34.061l-0.069,0.262c0.23-0.048,0.333-0.049,0.337-0.082c0.007,0.004,0.013,0.009,0.019,0.013
		l-0.042-0.044c-0.026-0.038-0.093-0.097-0.224-0.233c10.103,6.848,0.281,13.802,0.11,20.704l-0.075-0.054
		c0.017,0.079,0.03,0.148,0.045,0.223c-0.071,0.642-0.071,2.932,0.167,2.678c-0.033-0.792-0.069-1.585-0.107-2.377
		c0.417,2.198,0.107,2.377,0.107,2.377c-3.092,11.526-9.768,14.284-20.072,8.224c-4.255-2.503-18.589-4.805-17.455,11.345
		c1.984,28.246-49.501,129.384,5.505,124.248c4.078,219.834-11.813,232.182-69.365,338.759l-0.062-0.131
		c-0.095,0.33-0.156,0.481-0.153,0.529c-0.006,0.011-0.012,0.023-0.018,0.034c0,0,0.019-0.011,0.031-0.018
		c0.031,0.004,0.123-0.07,0.313-0.178c-20.414,56.1-17.113,68.569-33.607,97.053c-5.555,9.592,0.29,21.557,10.092,27.293
		c-0.191,1.534-16.513,7.303-11.693,18.088c2.59,5.794,8.47,8.42,14.992,3.513c0.852-0.641,2.576,0.017,3.822-0.261
		c22.568-5.04,29.268,23.46,37.823,16.657c6.358-5.056-5.952-8.559-1.394-13.777c3.114,3.328,8.794,3.56,6.338,11.369
		c-14.161,45.031-4.315,75.517-34.53,87.441c-0.15,0.059-32.289,30.695-32.404,30.808c-6.388,6.233-4.568,11.723-2.812,17.261
		c2.35,7.407,8.446,0.898,13.736,1.593c-5.094,3.862-10.649,6.69-9.025,13.503c0.6,2.518,2.643,4.828,5.621,4.439
		c13.02-1.705,25.561,4.309,38.561,2.261c28.651-4.514,39.943,19.959,44.543-6.86c0.65-3.79-1.356-8.985,6.776-6.442
		c9.579,2.996,11.91-3.932,8.791-10.915c-15.432-34.552,16.212-72.871,19.577-102.635c5.236-46.32,22.849-89.672,30.719-111.393
		c36.259-100.078,22.731-150.688,54.396-172.464c2.61-1.795,6.936-4.895,5.173-10.513c-3.083-9.825,3.516-8.18,13.98-58.806
		c7.925-38.342,13.658-77.509,32.227-112.802c2.875-5.465-0.501-13.493,7.559-17.162c4.134,12.974,8.181,25.673,12.227,38.373
		l-0.177-0.189c0.932,2.457,0.861,1.876,0.149,2.81c-0.052-0.031-0.093-0.059-0.142-0.09c0,0.094,0,0.189,0.001,0.283l0.194-0.159
		c7.608,28.581,9.441,58.164,14.775,87.147c0.606,3.293,1.964,10.09-2.457,11.855c-11.935,4.765-18.145,15.873-27.509,23.417
		c-14.271,11.498-31.445,19.85-41.974,35.758c-0.215,0.032-0.43,0.063-0.645,0.095c0.149,0.057,0.335,0.139,0.479,0.144
		c-0.007,0.01-0.014,0.02-0.021,0.03l0.027-0.031c0.003,0,0.005,0,0.008,0c-4.857,5.761-4.188,12.537,3.747,9.74
		c10.797-3.805,24.012-1.839,32.556-12.716c4.356-5.546,13.164-14.038,16.574-12.682c10.461,4.158,17.633-1.393,25.936-4.905
		c2.769,17.323,4.975,34.228,16.01,47.381c19.722,23.51,20.108,75.017,26.495,118.352c8.548,57.991,28.881,116.035,28.881,116.035
		c2.352,21.028,4.244,41.978,10.666,62.254c3.27,10.324,9.721,20.908,8.946,30.927c-3.353,43.348,13.59,52.912,21.984,60.292
		c8.648,7.602,17.398-10.597,28.536-9.745c18.846,1.444,36.124-7.811,54.737-7.598c3.284,0.038,8.124,0.953,8.366-3.735
		c0.432-8.372,5.325-17.533-2.711-24.947l0.146-0.037c-0.29-0.157-0.42-0.245-0.458-0.252c-0.007-0.006-0.013-0.012-0.02-0.018
		l0.009,0.017c-0.019,0.011,0.056,0.113,0.165,0.331c-32.504-34.981-33.306-16.158-56.585-52.01
		c-16.739-25.779-46.644-13.989-32.309-3.104c-5.529,1.026,0.038,6.69,1.185,1.068c-0.395-0.355-0.789-0.711-1.183-1.067
		c7.853,7.092,13.944,2.499,19.219-6.38c1.204,6.88,1.964,11.229,2.771,15.841c-8.275,0.511-16.167,0.998-24.056,1.485
		c-0.944,3.431-1.353,6.86,0.005,10.281c6.334,2,13.026-0.147,19.615,2.889c7.307,3.367,10.165-1.07,9.546-7.986
		c11.287,30.075,25.346,27.43,52.06,48.264c-10.536,2.669-20.41-5.096-31.91-0.362c-11.391,4.69-24.815,3.227-36.882,7.798
		c-17.066,6.465-13.491-23.505-21.339-57.578c-0.934-4.056,3.341-12.673,1.642-19.802c-1.29-5.412-2.605-8.144,6.57-7.797
		c22.336,0.843,22.51-0.554,15.123-23.132c-1.751-5.35-1.926-23.914,4.287-28.512c18.388-13.61,59.902,6.071,30.845-35.335
		c24.201,4.356,6.434-21.867,2.062-79.734c-2.611-34.558-17.124-65.512-29.851-96.882c-6.888-16.979-5.109-35.672-12.709-52.387
		c-8.382-18.435-9.306-48.974,4.424-43.216c7.708,3.232,16.372,0.708,23.311,5.584c-2.665,1.984-8.926,0.005-8.417,6.525
		c-0.684,0.435-0.587,0.379,0.01-0.003c-0.01,0.003,0.171-0.112,0.171-0.112c10.366,5.913,21.106-1.772,31.63,0.939
		c38.344,9.877,63.68-10.691,108.693-37.288l-0.094,0.094c-0.043,0.032-0.092,0.092-0.17,0.171l0.668,0.377
		c-0.329-0.519-0.393-0.625-0.495-0.551c12.941-13.201,58.703-48.031,70.202-54.547c12.95-16.092,45.525-23.661,65.89-159.304
		c4.864-32.404-4.287-12.158-2.395-31.838c1.443-15.005,14.966-17.855,24.764-24.45l-0.085,0.084
		c-0.044,0.027-0.091,0.09-0.172,0.17l0.651,0.397c-0.223-0.365-0.323-0.524-0.396-0.568c15.354-10.248,30.479-20.803,46.127-30.656
		C868.484,797.193,867.631,796.97,847.766,772.803z M212.232,353.139c-0.062,0.051-0.124,0.102-0.186,0.152
		c-0.02-0.023-0.033-0.041-0.054-0.065c0.758-2.833,1.563-5.685,2.367-8.536c0.175,0.056,0.351,0.112,0.526,0.168
		C214.001,347.619,213.116,350.379,212.232,353.139z M358.847,360.843c0.279,0.691,0.559,1.382,0.811,2.006
		c-0.161,1.329-0.549,2.502-2.094,1.932C354.751,363.743,357.847,361.721,358.847,360.843z M356.026,356.349
		c-4.42-1.246-4.222-2.674-8.695-10.005C351.834,347.74,352.119,352.559,356.026,356.349z M347.147,346.043
		c-0.811-1.321-1.767-2.822-2.927-4.546C345.49,341.1,344.945,340.319,347.147,346.043z M337.747,330.607
		c-0.16,0.058-0.32,0.117-0.479,0.175c-0.022-0.061-0.05-0.119-0.073-0.18C337.379,330.604,337.563,330.605,337.747,330.607z
		 M332.133,317.481c5.447,2.641,4.222,7.813,4.727,12.324C335.019,325.82,331.254,322.52,332.133,317.481z M329.905,303.33
		c0.125,0.056,0.249,0.113,0.374,0.169c-0.226,0.064-0.453,0.128-0.679,0.192C329.702,303.571,329.804,303.45,329.905,303.33z
		 M329.647,310.878c0.018,0.053,0.038,0.108,0.057,0.161c-0.185-0.045-0.37-0.09-0.554-0.135
		C329.315,310.896,329.481,310.887,329.647,310.878z M325.904,300.913c-0.189-0.286-0.373-0.577-0.551-0.872
		C325.859,300.366,325.979,300.153,325.904,300.913z M302.972,303.894c3.008-4.602,7.378-6.289,13.204-4.726
		c-14.419,5.232-12.712,4.58-13.712,5.066C302.633,304.121,302.802,304.008,302.972,303.894z M283.087,311.259
		c-6.808,12.209-6.808,12.209-15.123,17.385C269.324,318.856,277.828,317.512,283.087,311.259z M237.166,353.623
		c0.264,1.637,0.529,3.273,0.793,4.91c-0.542-0.087-1.085-0.174-1.628-0.26C236.609,356.723,236.888,355.173,237.166,353.623z
		 M236.869,397.228l0.459-0.815l0.204,0.963L236.869,397.228z M233.78,382.434c1.61-5.567,3.032-10.48,4.859-16.798
		C240.961,375.925,240.961,375.925,233.78,382.434z M310.569,525.733c-1.565,3.788-4.301,3.59-7.081,4.294
		c-3.098-13.546-22.843-4.738-26.308-20.717c-1.862-8.588-5.593-15.967-0.337-23.83c2.751-4.116-1.161-9.514,3.99-13.577
		c3.963,4.305-5.664,8.57,0.986,11.518c16.127,7.151,35.197-34.208,39.461,3.902C322.956,502.31,315.682,513.355,310.569,525.733z
		 M292.108,453.076c-11.142-8.583-25.568-14.615-30.353-29.878l0.086,0.091c0.032,0.044,0.092,0.097,0.174,0.184l0.393-0.597
		c-0.316,0.158-0.479,0.235-0.548,0.295c-0.859-1.67-1.719-3.34-2.579-5.011c-11.823-4.362-16.048-12.575-11.572-73.996
		c1.149,9.047-1.142,12.825,3.461,13.675c6.961,1.286,2.871-16.98,13.352-13.523c9.559,3.153,16.267-26.592,24.353-10.791
		c2.804,5.479,13.486-6.154,18.123-20.432c8.616,4.959,14.131,12.697,16.342,23.213c1.446,6.879,22.395,15.518,16.996,22.915
		c-3.963,5.43-20.069-4.537-30.824,5.897c-1.501,1.457,0.522,10.415,22.307,5.936c9.858-2.027,8.91,0.779,9.903,8.98
		c1.439,11.882,0.993,22.478-4.665,32.884C338.568,418.749,314.058,469.984,292.108,453.076z M410.245,507.505
		c3.737-0.119,5.784,1.719,7.035,5.905C414.458,511.04,412.352,509.273,410.245,507.505z M573.326,861.866
		c-0.001-0.001-0.003-0.002-0.004-0.003c0.059-0.026,0.117-0.051,0.176-0.077C573.431,861.812,573.386,861.84,573.326,861.866z
		 M579.407,885.017c-0.659-1.067-1.319-2.133-1.978-3.2c1.648-0.99,0.873-1.513,3.577,2.007
		C580.293,884.356,579.85,884.686,579.407,885.017z M122.571,151.855c0.08-0.054-1.176,0.8-2.431,1.654
		C118.528,147.321,126.424,147.48,122.571,151.855z M497.907,1526.076c0.167-0.067,0.335-0.133,0.488-0.214
		c0.024,0.067,0.049,0.128,0.074,0.195C498.281,1526.064,498.094,1526.07,497.907,1526.076z M550.904,1575.198
		c0.094,0.074,0.185,0.141,0.28,0.215l-0.572,0.388C550.612,1575.802,550.816,1575.367,550.904,1575.198z M474.822,1600.571
		c-0.674,0.57-1.206,1.231-1.896,1.557C469.671,1603.665,468.95,1598.782,474.822,1600.571z M563.238,1010.341
		c1.366,0.755,1.556,1.517-0.054,2.287C563.202,1011.865,563.22,1011.103,563.238,1010.341z M562.812,1009.992
		c-0.685,0.004-1.37,0.008-2.054,0.012C561.409,1009.439,562.066,1008.97,562.812,1009.992z M508.679,820.885
		c0.755,0.732,2.17,1.451-0.033,2.244C508.657,822.381,508.668,821.633,508.679,820.885z M409.761,693.279
		c-0.699-12.805,6.081-22.887,8.768-34.362c1.37-5.848,5.877-1.738,6.48,0.734c4.829,19.771,15.955,35.191,29.666,50.167
		c19.067,20.826,22.063,57.033,53.695,110.688c0.004,0.007,0.01,0.014,0.014,0.022c-1.443,0.87-0.818,1.771,0.062,2.675
		c-0.007,0.002-0.012,0.005-0.02,0.007c1.513,3.201,3.027,6.401,4.541,9.6c0.001,0.001,0.001,0.001,0.002,0.002
		c-1.021,0.832-2.042,1.759-0.329,2.767c0.293,0.173,1.249-0.78,1.899-1.213c37.958,96.582,46.555,96.359,30.03,107.479
		c-10.46,7.039-8.894,18.545-7.431,29.36l-0.038-0.036c4.492,6.676,6.105,1.866-75.026,72.29c-4.575,3.971-7.056,0.624-6.415-1.96
		c5.681-22.895-2.646-44.281,2.448-57.894c0.152,4.029,1.742,6.261,3.652,8.29c27.262,20.644,39.157-7.411,40.156-7.389
		c14.316,0.316,12.188-12.225,14.82-20.071c7.704-22.971,1.85-17.902-2.336-61.729c-3.399-35.591-24.176-63.655-39.311-94.137
		c-1.853-3.732-6.875-5.891-10.544-8.722c0.085-0.189,0.169-0.378,0.254-0.568c-0.176,0.121-0.352,0.241-0.527,0.359
		c-0.001,0-0.001-0.001-0.002-0.001l0.001,0.002c-0.001,0-0.001,0.001-0.002,0.001c0-0.002,0.126,0.16,0.192,0.247l0.041,0.053
		c-3.863-3.355-9.425-5.972-11.264-10.207c-5.087-11.711-15.444-11.472-24.26-10.246c-8.625,1.199-1.571,11.423-5.489,16.779
		c-5.256-1.876-4.791-5.566-4.453-10.119c0.667-9.005-7.072-14.228-11.016-21.149c-2.361-4.144-6.044,0.602-9.122-0.158
		C406.225,750.829,410.599,708.612,409.761,693.279z M474.9,1070.345c-0.108,0.14-0.19,0.234-0.272,0.328
		c-0.074-0.209-0.147-0.418-0.221-0.627C474.571,1070.145,474.735,1070.245,474.9,1070.345z M464.44,1077.803
		c-0.206,0.062-0.415,0.125-0.621,0.188c0.194-0.066,0.385-0.13,0.579-0.196C464.413,1077.796,464.426,1077.801,464.44,1077.803z
		 M458.453,1079.805c-0.003,0.21-0.007,0.42-0.01,0.63c-0.056-0.19-0.112-0.38-0.168-0.57
		C458.333,1079.846,458.394,1079.825,458.453,1079.805z M448.79,859.088c0.773-27.071,23.752,24.227,29.491,54.762
		C474.342,906.962,448.654,863.839,448.79,859.088z M453.93,951.562c-1.307-0.235-1.462-1.017-1.429-1.887
		C453.218,950.188,454.025,950.659,453.93,951.562z M435.384,881.059c4.9,22.118,15.032,42.852,16.417,65.9
		c-0.027-0.014-0.046-0.031-0.075-0.044C441.017,926.336,437.86,903.788,435.384,881.059z M441.092,1098.841
		c-0.084,0.15-0.144,0.251-0.205,0.353c-0.12-0.191-0.24-0.381-0.36-0.572C440.716,1098.695,440.904,1098.768,441.092,1098.841z
		 M427.335,845.787c2.963,10.573,3.033,21.111-2.945,32.761c2.177-15.819-9.782-29.24-4.318-45.04
		c3.662-10.589-10.059-0.78-5.806-10.905c1.615-3.844,4.3-2.052,5.869,0.07c3.198,4.325,16.403,5.154,5.429,15.009
		C424.543,838.599,426.563,843.033,427.335,845.787z M424.719,896.839c-5.617-2.214-3.132-2.953,0.628-5.163
		C432.419,892.503,427.796,898.052,424.719,896.839z M418.188,808.343c9.622-6.672,10.516-6.272,26.817,11.477
		C434.769,818.455,427.58,812.416,418.188,808.343z M431.126,794.077c1.024-0.787,1.739-1.633,2.031-1.506
		C437.675,794.539,437.444,798.987,431.126,794.077z M442.207,846.167c-1.224-1.442-3.786-3.643-2.642-7.87
		C444.75,839.83,442,844.292,442.207,846.167z M450.588,806.699c0.089-0.478,0.178-0.956,0.267-1.433
		c1.485,0.69,1.143,0.375,0.944,1.407C451.396,806.699,450.992,806.699,450.588,806.699z M459.219,816.244
		c1.636,0.355,1.19,0.091,1.433,1.321C459.34,817.806,459.615,818.172,459.219,816.244z M487.09,974.491
		c2.651,7.125-6.783,9.526-6.249,1.728c0.614-8.958-7.181-14.769-8.533-22.975c1.369-0.028,1.949-0.041,2.525-0.07
		c0.881,0.867,1.763,1.733,2.644,2.599c0.03-0.817,0.06-1.633,0.089-2.449c0.845,0.848,1.689,1.696,2.534,2.545
		C482.435,962.076,484.779,968.278,487.09,974.491z M480.932,918.979l0.725-0.024l-0.339,0.968L480.932,918.979z M462.298,916.225
		c3.663,10.089,12.997,18.977,7.08,31.176C467.712,936.856,459.311,927.796,462.298,916.225z M461.583,915.887
		c0.173-0.067,0.347-0.134,0.52-0.202c0.021,0.06,0.044,0.12,0.065,0.18C461.973,915.872,461.778,915.88,461.583,915.887z
		 M472.056,952.992c-2.444-0.738-1.724-3.158-2.404-4.834C471.88,948.966,472.055,950.93,472.056,952.992z M497.699,897.119
		c-6.54-3.183-4.203-6.843-2.921-12.357C498.811,889.594,496.988,893.189,497.699,897.119z M498.729,909.015
		c-0.617-0.113-1.47-1.006-1.509-1.59c-0.035-0.522,0.902-1.109,1.645-1.925C500.132,907.206,500.749,909.384,498.729,909.015z
		 M502.555,957.244c-3.396-3.046-7.274-4.938-6.217-9.539C497.26,943.694,508.993,946.795,502.555,957.244z M407.305,849.554
		c0.616-0.375,1.233-0.751,1.849-1.126C412.612,851.605,410.277,852.888,407.305,849.554z M399.603,774.267
		c7.968,3.645,15,13.123,0.464,15.513c-0.019-0.029-0.036-0.054-0.054-0.082c0.109-0.043,0.217-0.088,0.326-0.131
		C401.476,784.4,400.833,779.318,399.603,774.267z M398.882,764.873c0.007,0.147,0.014,0.293,0.021,0.44
		c-0.029-0.1-0.048-0.201-0.09-0.301C398.837,764.969,398.859,764.917,398.882,764.873z M398.971,766.697
		c0.115,2.37,0.23,4.74,0.345,7.11C396.194,771.678,398.574,769.108,398.971,766.697z M397.869,795.348
		c2.487,5.621,13.997,3.792,11.307,13.737c-1.986,7.345-8.865-1.151-12.113-13.917C397.423,795.192,397.804,795.2,397.869,795.348z
		 M396.276,791.199c0.027,0.269,0.054,0.538,0.082,0.807c-0.051-0.26-0.103-0.517-0.151-0.779
		C396.23,791.218,396.253,791.209,396.276,791.199z M386.824,800.703c2.328,2.593,0.972,3.242-0.036,2.123
		C385.851,801.784,385.609,802.421,386.824,800.703z M385.515,813.412c-0.912,0.57-1.825,1.139-2.737,1.709
		c-1.771-2.976-3.543-5.953-5.899-9.911C383.938,805.464,383.448,810.507,385.515,813.412z M382.225,794.818
		c-2.436-0.192-1.932,0.457-2.346-2.299C382.081,792.914,381.567,792.228,382.225,794.818z M360.054,762.83
		c5.677,7.057,10.472,14.729,18.79,20.732c-44.429,17.119-61.788,24.35-71.183,26.95c2.399-5.845,8.642-6.083,13.266-7.458
		c13.12-3.904,24.7-11.211,37.461-15.711C376.546,780.939,362.267,775.658,360.054,762.83z M283.53,766.388
		c9.82,2.969,17.719,4.212,30.165,11.743C300.542,775.618,291.966,771.096,283.53,766.388z M305.096,811.15
		c-4.425,0.96-6.996,0.666-10.928,0C297.811,811.15,301.453,811.15,305.096,811.15z M224.665,818.99
		c0-28.854-8.547-20.628,67.805-19.896C271.602,811.38,247.577,812.087,224.665,818.99z M283.293,816.529
		c-1.807,0.687-3.614,1.374-5.421,2.06c0.005-0.082,0.01-0.165,0.016-0.247c1.721-0.716,3.471-1.47,5.221-2.223
		C283.17,816.256,283.231,816.392,283.293,816.529z M258.846,821.486c-1.865,3.819-4.707,3.809-8.371,3.024
		C252.786,821.135,255.229,820.394,258.846,821.486z M240.343,826.956c-2.495,0.689-1.69,0.543-2.964,0.275
		c0.628-0.194,1.257-0.387,1.885-0.581C239.627,826.764,239.985,826.86,240.343,826.956z M228.228,829.679c-0.761,0-1.521,0-2.282,0
		C227.361,829.201,226.663,829.101,228.228,829.679z M313.515,767.218l1.045-0.204l-0.208,0.757L313.515,767.218z M322.737,770.542
		c1.749,1.282,3.407,2.696,1.153,2.55C322.489,773.001,322.782,772.507,322.737,770.542z M355.361,755.774
		c0.012-0.003,0.024-0.007,0.037-0.01c-0.002,0.038-0.003,0.076-0.005,0.113c-0.023,0.005-0.045,0.01-0.068,0.015
		C355.34,755.849,355.347,755.815,355.361,755.774z M342.322,734.857c0.021,0.021,0.042,0.043,0.063,0.064
		c-0.02,0.038-0.034,0.07-0.053,0.107c-0.004,0.003-0.007,0.005-0.011,0.008C342.321,734.978,342.321,734.917,342.322,734.857z
		 M338.102,724.61c-4.921-3.382-6.967-5.948-5.957-9.836C333.753,717.43,335.392,720.136,338.102,724.61z M331.903,713.967
		c-1.993-1.343-3.987-2.686-5.98-4.029C330.038,708.19,331.361,710.509,331.903,713.967z M325.523,708.823
		c-0.417-1.451-0.806-2.927-1.186-4.411C325.555,704.379,325.399,703.571,325.523,708.823z M319.049,693.421
		c-0.003,0.035-0.006,0.071-0.009,0.106c-0.025,0.005-0.05,0.01-0.075,0.016c-0.038-0.051-0.076-0.104-0.114-0.155
		C318.917,693.399,318.983,693.41,319.049,693.421z M311.388,683.123c0.444,0.818,0.891,1.648,1.337,2.478
		c-0.451-0.825-0.901-1.649-1.352-2.474C311.378,683.126,311.383,683.125,311.388,683.123z M287.83,649.427
		c0.106,0.249,0.213,0.498,0.319,0.746c-0.201-0.348-0.171-0.329-0.473-0.744C287.73,649.427,287.776,649.431,287.83,649.427z
		 M280.908,634.851c-0.582,0.118-1.164,0.235-1.746,0.353c-0.181-1.36-0.362-2.72-0.543-4.081
		C279.398,632.355,280.155,633.601,280.908,634.851z M274.161,627.992c-0.961-2.97-1.509-4.726-1.939-6.246
		C274.524,623.364,274.594,625.606,274.161,627.992z M264.519,609.87c1.914,1.515,3.834,3.066,5.754,4.617
		c-4.898,0.572-5.425-2.648-5.9-4.565C264.423,609.904,264.464,609.891,264.519,609.87z M251.521,589.087
		c-0.007,0.058-0.014,0.124-0.021,0.183c-0.021-0.05-0.042-0.101-0.063-0.151C251.468,589.107,251.49,589.1,251.521,589.087z
		 M242.296,574.619l0.634,0.4l-0.688,0.297L242.296,574.619z M238.914,566.792c0.378,0.393,0.755,0.784,1.131,1.173
		C238.448,568.374,238.794,567.509,238.914,566.792z M236.584,560.658c0.588,1.705,1.187,3.424,1.789,5.147
		C236.795,564.463,236.445,562.653,236.584,560.658z M236.364,560.023c0.019,0.057,0.04,0.115,0.06,0.171
		c-0.21-0.021-0.419-0.043-0.629-0.065C235.984,560.094,236.174,560.059,236.364,560.023z M212.857,507.367
		c5.24,1.373,11.983-3.82,16.628,4.549c-5.684,1.313-9.735-9.195-14.691-0.166C213.259,514.546,208.135,506.129,212.857,507.367z
		 M222.027,533.803c-0.453-1.664-0.737-2.772-1.058-3.869C220.504,528.339,222.027,526.802,222.027,533.803z M124.157,429.459
		c1.46-0.851,3.669-1.327,4.385,0.862c3.214,9.828,11.853,18.316,7.632,30.014C135.32,451.76,118.734,432.617,124.157,429.459z
		 M93.258,143.913c-11.244,1.416-11.244,1.416-15.265-6.083C83.826,136.879,88.418,138.714,93.258,143.913z M75.631,159.912
		c-6.91-1.29-8.205-4.75-8.402-9.012C72.869,150.847,71.408,156.594,75.631,159.912z M45.449,157.625
		c9.938-1.615,9.079,6.978,12.938,11.11C50.198,168.696,50.973,160.184,45.449,157.625z M193.841,713.79
		c1.963-37.795-31.49-178.183-40.313-175.577c-8.656,2.557-4.616,11.024-0.182,27.384c-14.528-19.866-26.989-36.906-39.45-53.947
		l0.066,0.061c0.104,0.096,0.286,0.265,0.29,0.269c-0.031-0.098-0.077-0.222-0.116-0.334c-0.049-0.001-0.096,0-0.146-0.001
		c-17.051-21.898-35.103-43.233-39.642-72.106c-0.329-2.093-2.881-3.837-4.512-5.726c-9.65-2.324-12.553-3.318-14.443-70.673
		c-0.754-26.887-10.163-65.604-7.962-86.02c1.938-17.971,15.739-0.824,24.945-19.64l0.073,0.147c0.083-0.34,0.137-0.497,0.13-0.547
		c0.007-0.015,0.014-0.027,0.021-0.041l-0.041,0.024c-0.037,0.003-0.128,0.074-0.303,0.175c2.509-3.011,5.539-6.464,2.042-10.037
		c-6.049-6.182-12.297,8.491-18.202,2.776c-2.771-2.682-0.201-5.419-0.046-8.204c0.827-14.843,3.811-29.854-2.201-45.395
		c6.063-0.349,11.003-3.25,17.603,0.865c5.63,3.51,11.778-1.256,11.322-7.503c-0.568-7.78,2.798-11.903,8.468-15.179
		c20.783-12.006,3.775-31.078,14.077-30.538c8.722,0.457-3.801,8.33,2.226,29.409c1.427,4.992,1.907,11.908-3.96,16.093
		c-3.372,13.52-29.629-2.34-18.152,59.998l-0.011-0.011c0.002-0.023-0.083-0.083-0.251-0.253l0.003,0.271
		c0.016-0.001,0.022,0,0.036-0.001c2.255,16.254,6.271,32.511,6.249,48.762c-0.028,20.985,9.367,40.071,9.781,60.541
		c0.65,32.067,22.89,48.745,14.395,63.645c-3.014-16.228-10.224-28.449-15.043-41.69c-5.231-14.375-6.017-18.362-10.487-16.65
		c-7.599,2.909-1.347,10.056,0.523,15.297l-0.01-0.016c0.017-0.007-0.059-0.095-0.186-0.301l-0.167,0.119
		c0.152,0.078,0.234,0.124,0.288,0.153c6.895,15.466,13.79,30.932,20.686,46.399c0,0.004,0,0.008,0,0.012
		c-2.629,0.859-1.698,1.791-0.11,2.735c0,0.002,0,0.005,0,0.007c16.506,27.477,26.206,58.587,45.966,84.505
		c-0.183-17.129-11.613-30.19-16.951-45.423c-0.353-0.899-3.23-1.503-0.325-2.782c-1.21-1.473-2.42-2.944-3.629-4.416
		c2.844-0.787,6.683-2.436,7.959,0.994c3.958,10.64,15.779,16.852,15.87,29.813c0.031,4.499,4.452,10.626,9.248,7.2
		c6.479-4.627,12.137-5.596,19.944-5.703c25.646-0.351,6.261,14.561,23.456,34.617l-0.011-0.012c0-0.024-0.085-0.087-0.25-0.255
		l-0.01,0.277c0.064-0.004,0.102-0.004,0.142-0.004C296.1,699.937,292.644,673.78,332.862,741.655
		c5.104,8.615,8.426,18.261,14.335,26.535c1.021,1.43,3.477,4.058-0.904,5.868c-3.258,1.346-6.097,3.802-9.138,0.421
		c-21.405-23.797-103.476-37.583-102.222-25.58c1.19,11.391,24.615-8.897,41.278,14.782c-4.138-1.379-7.244-1.789-8.582,1.42
		c-1.786,4.281,3.624,3.421,5.72,4.984c3.214,2.397,6.592,4.574,12.572,8.677c-53.486,0-59.146,2.483-65.527-10.066
		C195.898,760.971,192.427,741.022,193.841,713.79z M202.711,811.249c-0.12-1.057,0.445-2.912,3.187-3.854
		C207.375,809.93,203.1,810.384,202.711,811.249z M193.622,849.55c0.031,0.364,0.061,0.728,0.091,1.092
		c-0.762,0.044-1.524,0.088-2.286,0.132C192.159,850.366,192.89,849.958,193.622,849.55z M191.077,837.358
		c0.672,0.309,1.344,0.617,2.015,0.926c-0.272,0.68-0.547,1.353-0.821,2.026C189.793,839.212,190.044,839.982,191.077,837.358z
		 M190.973,851.274c1.159,6.545-0.185,13.023-0.814,19.527C188.637,864.214,189.168,857.716,190.973,851.274z M189.98,871.153
		c-6.096,11.522-2.25,25.355-8.275,36.881C183.495,895.522,181.03,882.047,189.98,871.153z M181.278,908.976
		c-0.353,3.172-0.705,6.344-1.058,9.516c-0.305,0.018-0.61,0.036-0.915,0.053C179.305,908.466,178.782,907.954,181.278,908.976z
		 M106.678,1299.69c0.446,1.053,0.892,2.106,1.449,3.42c-1.221,0.822-2.171,1.462-3.12,2.101
		C103.72,1300.63,103.52,1302.124,106.678,1299.69z M102.276,1314.741c0.123,0.322,0.246,0.644,0.369,0.966
		c-0.223,0.688-0.472,1.367-0.721,2.046C100.928,1316.416,100.674,1317.219,102.276,1314.741z M125.445,1500.677
		c3.152,5.708-2.485,8.173-2.605,9.261C123.324,1509.128,121.208,1504.384,125.445,1500.677z M120.835,1520.786
		c0.081,0.688,0.162,1.375,0.296,2.502c-0.345,0.581-0.861,1.45-1.378,2.319C119.5,1523.363,119.063,1524.637,120.835,1520.786z
		 M142.549,1571.481c1.283,12.651,0.39,9.697-60.285-0.534c-0.164,0.2-0.327,0.4-0.491,0.6c0.079-0.158,0.157-0.317,0.236-0.475
		c14.025-10.744,26.837-22.922,40.078-37.168c1.572,8.662-1.088,14.966-5.249,19.654c-9.739,10.974,8.174,20.149,12.314,6.622
		c5.612-18.339,7.733-23.424,12.194-21.69c3.515,1.366,2.498,5.077,0.403,7.368C133.787,1554.565,141.711,1563.226,142.549,1571.481
		z M127.128,1490.994c0.011-0.011,0.023-0.021,0.034-0.032c-0.003,0.018-0.006,0.036-0.009,0.054
		C127.145,1491.009,127.137,1491.002,127.128,1490.994z M133.65,1464.104c-1.408,4.659-2.815,9.319-5.097,16.873
		C126.83,1472.519,129.895,1468.006,133.65,1464.104z M141.425,1498.455c-2.08,8.171-9.469,3.496-4.287-2.616
		c2.341-18.724,6.047-37.073,16.125-54.044C155.12,1443.764,142.112,1495.757,141.425,1498.455z M157.519,1460.928
		c-0.045,0.268-0.09,0.536-0.135,0.804c-0.006-0.198-0.011-0.414-0.016-0.671c0.525-0.875,1.058-1.744,1.591-2.614
		C160.517,1460.34,158.386,1459.091,157.519,1460.928z M161.885,1447.415c-2.942-9.52,1.877-17.712,3.099-26.376
		c0.103-0.037,0.195-0.075,0.292-0.112C165.822,1428.553,167.591,1427.012,161.885,1447.415z M165.041,1417.232
		c0.037-0.056,0.066-0.116,0.102-0.173c0,0.074,0.002,0.141,0.002,0.213C165.109,1417.259,165.078,1417.245,165.041,1417.232z
		 M165.179,1416.997c1.914-3.166,1.317-7.931,5.729-9.523C170.218,1411.361,169.616,1415.3,165.179,1416.997z M209.31,1289.402
		c0.307-1.009-0.299-0.701,2.037-1.351c0,0.354,0,0.708,0,1.108C210.671,1289.239,209.99,1289.321,209.31,1289.402z
		 M209.792,1272.619c0.138,0.087,0.276,0.173,0.414,0.26c-0.126,0.134-0.222,0.224-0.318,0.313
		C209.855,1273.001,209.823,1272.81,209.792,1272.619z M365.886,1123.356c-1.157-0.573-2.499-3.015-2.145-4.063
		c8.674-25.641-27.759-129.066-31.545-144.54c-4.245-17.347,18.447,1.905,20.464-17.976c2.612-25.754-40.371-15.543-53.607-5.187
		c-15.912,12.449,12.941,6.988-1.218,21.495c-22.443,22.994-3.141,41.724-18.458,87.739
		c-14.055,42.224-14.528,114.557-49.789,132.882c-2.935,1.525-5.761,6.088-6.014,9.447c-0.948,12.622-9.459,20.776-16.113,30.09
		c-0.007,0.014-0.015,0.024-0.022,0.038c-0.874-1.539-1.789-0.554-2.698,0.093c-0.027-0.056-0.055-0.096-0.082-0.156
		c-12.142,2.277-16.864,14.279-10.325,15.785c7.173,1.651,12.959-1.189,16.851-6.754c6.919-9.893,18.063-17.17,18.674-31.185
		c0.146-3.357,2.764-9.648,7.917-7.732c5.34,1.985,0.8,6.755-0.037,10.039c-8.254,32.379-14.81,24.436-22.738,48.622
		c-0.06,0.021-0.12,0.043-0.179,0.064c-0.009-0.027-0.014-0.047-0.023-0.075c-4.565-5.877-4.819-6.05-7.671-1.859
		c-31.099,45.704-9.385,29.679-6.852,30.85c-4.64,6.003-9.344,21.237-4.478,22.939c6.463,2.26,6.456-7.774,12.753-17.961
		c-9.616,37.878-7.718,79.601-37.255,110.731c-0.259-7.864-12.651-13.159-14.096-0.491c-0.766,6.723-3.549,5.198-8.66,4.286
		c-19.972-3.563-39.168-9.491-58.256-16.146c-17.743-6.185,2.261-16.898,26.895-97.626c9.219-30.21,22.95-58.356,34.469-87.5
		c3.493-8.836,3.331-19.665,16.682-20.804c2.81-0.24,6.631-3.763,6.425-7.421c-0.977-17.296,10.421-31.262,12.313-47.75
		c13.819-120.38-20.203-28.074,9.975-224.148l0.286,0.07c-0.15-0.256-0.191-0.372-0.239-0.381c0.001-0.009,0.003-0.017,0.004-0.026
		l-0.057,0.062c-0.041,0.037-0.094,0.102-0.204,0.222c3.702-22.991,6.672-46.112,13.844-68.862
		c13.93,7.602,28.605-0.682,42.851-4.033c99.243-23.342,100.136-40.619,109.886-24.061c44.624,75.779,58.345,39.458,54.799,71.143
		c-1.022,9.129,1.682,16.826,3.525,24.956c5.37,23.687,9.598,88.102,14.661,126.919c5.681,43.555-20.233,42.434-65.763,85.361
		C369.138,1121.868,368.465,1124.633,365.886,1123.356z M207.274,1233.567c-0.83,1.422-1.648,1.497-2.451-0.04
		C205.64,1233.541,206.457,1233.554,207.274,1233.567z M200.487,1290.698c-0.066,0.082-0.133,0.172-0.199,0.258
		c0.05-0.262,0.1-0.524,0.15-0.785C200.454,1290.347,200.47,1290.522,200.487,1290.698z M430.573,1119.118
		c-0.743-0.016-1.486-0.031-2.229-0.047c0.755-0.744,1.486-1.453,2.187-2.122C430.545,1117.672,430.559,1118.395,430.573,1119.118z
		 M419.176,1356.232c-13.463-36.016-6.724-74.33-17.211-109.976l0.023,0.028c0.008,0.039,0.092,0.108,0.227,0.268l0.234-0.375
		c-0.152,0.027-0.261,0.04-0.336,0.052c-6.633-21.691-16.991-42.102-22.035-64.366c-4.826-21.303-34.239,1.821,47.935-62.467
		c0.919,1.638,1.897,0.489,2.866-0.271c-0.038-0.001-0.077-0.002-0.115-0.002c0.486-0.64,0.973-1.281,1.459-1.921
		c-0.441-0.201-0.882-0.401-1.323-0.602c25.91-24.563,14.858,2.219,19.321,11.727c0.605,1.29-1.515,3.061-3.443,2.914
		c-8.944-0.681-16.354,4.73-24.856,6.084c-21.853,3.48-4.103,19.356-7.589,29.312c-1.415-2.114-0.917-6.286-5.116-5.406
		c-2.264,0.474-2.637,2.011-1.762,3.686c-27.993-44.274,0.75,55.496,2.305,71.132c3.576,35.96,1.207,72.576,9.968,108.052
		C420.599,1347.633,419.437,1351.668,419.176,1356.232z M437.506,1141.567l-1.099-0.294l0.918-0.345L437.506,1141.567z
		 M452.394,1272.535c1.981,8.358,4.516,16.944,2.922,27.418C450.599,1290.237,453.031,1281.053,452.394,1272.535z M456.746,1408.388
		l0.003,0.825l-1.078-0.368L456.746,1408.388z M454.048,1399.534c-2.393,4.206-3.788,4.619-6.887,2.883
		c-3.291-1.843-6.445,0.6-3.627,3.799c6.93,7.866-6.841,9.766-7.566,2.218C435.279,1401.262,431.462,1403.236,454.048,1399.534z
		 M447.203,1345.793c-13.121,3.708-20.693-118.968-27.812-139.84c-2.026-5.941,0.354-12.917,3.427-18.935
		c5.894,34.252,14.443,67.971,19.531,102.426c2.405,16.285,0.106,33.451,7.832,48.91
		C451.885,1341.765,449.918,1345.025,447.203,1345.793z M425.494,1381.354c-0.902-0.907-1.805-1.813-2.708-2.72
		c0.975-0.423,2.234-1.317,2.807-0.994C427.553,1378.744,426.48,1380.127,425.494,1381.354z M422.764,1378.645
		c-0.001,0.097-0.003,0.194-0.004,0.291c-0.04-0.067-0.083-0.141-0.13-0.232C422.672,1378.687,422.719,1378.664,422.764,1378.645z
		 M421.388,1177.565l0.327-0.574l-0.008,1.143L421.388,1177.565z M415.114,1166.779c-0.197,0.042-0.394,0.085-0.591,0.128
		c-0.044-0.053-0.08-0.114-0.121-0.171C414.64,1166.75,414.877,1166.764,415.114,1166.779z M408.151,1165.97
		c-0.215-0.001-0.429-0.003-0.644-0.004c0.124-0.118,0.248-0.237,0.372-0.355C407.965,1165.73,408.055,1165.85,408.151,1165.97z
		 M423.265,1416.851l-0.878-0.414l0.953-0.278L423.265,1416.851z M422.286,1393.265c0.799-10.854,0.652-7.562,0.256-11.751
		c0.072-0.251,0.134-0.461,0.19-0.652c-0.004,0.251-0.007,0.502-0.011,0.754c0.889-0.013,1.779-0.027,2.668-0.04
		c-0.167,1.223-0.382,2.441-0.479,3.668C424.708,1387.795,432.857,1391.995,422.286,1393.265z M429.083,1349.151
		c1.216-1.422,0.637,0.876,1.104,1.336c0.528,0.521,0.826,1.275,1.198,1.954c-0.08-0.005-0.148-0.017-0.239-0.017
		C428.925,1352.301,427.782,1350.671,429.083,1349.151z M431.727,1365.952c4.52,3.256,2.946,8.125,4.423,14.762
		C431.795,1375.306,429.449,1371.863,431.727,1365.952z M432.321,1422.182l-0.841-0.547l0.953-0.315L432.321,1422.182z
		 M435.328,1387.683c-0.294,0.972,0.285,0.851-2.213,0.933C433.845,1388.311,434.58,1388.002,435.328,1387.683z M441.064,1457.088
		c-0.808,5.194-12.199-1.5-3.284-2.212C439.15,1455.245,441.49,1454.352,441.064,1457.088z M442.747,1488.028
		c-0.026-0.172-0.052-0.345-0.078-0.517c0.057-0.025,0.107-0.051,0.158-0.076C442.8,1487.632,442.774,1487.83,442.747,1488.028z
		 M473.428,1491.277c-4.129,0.102-7.248-9.539-0.055-10.595C478.026,1481.037,478.334,1491.156,473.428,1491.277z M483.186,1437.009
		c0.134,1.305-5.234,4.206-8.31,4.603c-7.777,1.003-2.31-7.822-7.385-10.519c-2.976,4.069-2.664,10.598-8.16,12.627
		c0.234,0.944,0.468,1.888,0.703,2.832c-0.191,0.047-0.382,0.093-0.574,0.14c0.077-0.138,0.154-0.276,0.231-0.413
		c-7.396,2.938,2.287,7.054-0.419,10.297l-0.126-0.182c-0.088,0.298-0.147,0.43-0.135,0.456c-0.005,0.005-0.008,0.01-0.014,0.014
		l0.02-0.013c0.023,0.009,0.112-0.07,0.311-0.195c3.3,15.289,6.819,30.624-8.629,41.955c-1.333-1.051-1.661-4.097-4.465-2.079
		c-0.007-0.209-0.013-0.417-0.02-0.626c0.127,0.118,0.255,0.236,0.382,0.354c0.427-3.621-0.405-6.753-3.601-8.917
		c0.634-0.372,0.767-0.858,0.78-1.965c1.39-0.935,2.135-1.866-0.017-2.784c0-0.009,0-0.016,0-0.024
		c1.458-2.611,9.882-2.944,4.274-7.508c-10.006-8.145-0.345-9.454,3.295-13.005c1.198-9.668-4.851-17.561-6.519-26.521
		c-0.864-4.641-3.527-7.196-8.539-8.112c5.48,1.474,5.487-10.574,12.551-4.446c-0.112,0.199-0.224,0.397-0.337,0.596
		c0.079-0.11,0.409-0.522,0.349-0.586c0.016,0.014,0.031,0.025,0.048,0.039l-0.053-0.063c6.628,2.432,6.71,2.479,10.78-4.505
		c1.153-1.979,3.306-2.314,4.047-1.23c3.374,4.942,10.734,2.609,13.772,7.806c-0.916,1.005-1.832,2.009-2.747,3.014
		c-0.067,0.144-0.135,0.288-0.202,0.433c0.183-0.157,0.277-0.259,0.314-0.324l0.138,0.134c0.87-1.026,1.74-2.052,2.606-3.086
		c-0.002-0.004-0.02-0.054-0.039-0.104l-0.009-0.025c-0.015-0.041-0.029-0.077-0.029-0.077
		C485.516,1425.882,482.745,1432.701,483.186,1437.009z M460.827,1331.796c2.302,1.907,0.525,3.752,0.069,5.588
		C460.544,1335.548,458.478,1333.703,460.827,1331.796z M462.776,1343.374c0.948,2.319,1.969,4.796,3.164,7.694
		C462.461,1348.971,462.755,1346.029,462.776,1343.374z M467.31,1368.463c0.5,0.405,1,0.809,1.5,1.214
		C466.848,1370.556,466.95,1369.623,467.31,1368.463z M470.105,1377.523c-0.428,0.729-0.84,1.423-1.252,2.117
		c-1.26-1.325-1.273-0.333-0.624-3.535C468.854,1376.577,469.48,1377.05,470.105,1377.523z M471.689,1334.884
		c-0.287-1.993-0.574-3.985-0.861-5.978C475.505,1330.787,472.827,1333.113,471.689,1334.884z M475.23,1353.919
		c-3.218-7.111-5.105-12.474-3.579-18.575C477.272,1339.764,477.725,1345.449,475.23,1353.919z M478.368,1365.814l0.412-0.795
		l0.217,0.902L478.368,1365.814z M479.865,1372.832c0.181,0.004,0.362,0.008,0.542,0.011c0.013,0.05,0.027,0.103,0.04,0.153
		C480.253,1372.942,480.059,1372.887,479.865,1372.832z M480.643,1378.371c0-1.544,0-3.087,0-4.631
		c0.388,1.486,0.782,2.983,1.182,4.487C481.431,1378.276,481.037,1378.323,480.643,1378.371z M484.206,1399.744
		c-1.135-4.894-1.661-7.162-2.366-10.203C485.62,1391.884,484.213,1394.79,484.206,1399.744z M484.888,1406.25l0.107-0.719
		l0.717,0.469L484.888,1406.25z M503.575,1394.44c2.608,0.632,1.922,2.596,1.684,4.378l0.258-0.181
		c1.77,3.728,3.54,7.455,5.31,11.183C499.063,1407.771,496.958,1403.298,503.575,1394.44z M511.204,1366.348
		c0.612,0.215,1.254,0.43,1.256,0.651C512.478,1368.661,511.914,1367.432,511.204,1366.348z M502.864,1311.634
		c0.084,0.134,0.168,0.268,0.252,0.402c4.938,17.397,12.975,34.396,7.65,53.237c-2.673-17.805-5.323-35.624-7.971-53.442
		C502.818,1311.766,502.841,1311.7,502.864,1311.634z M473.929,1191.603c0.136,0.827,1.087,1.703,0.919,2.371
		c-7.722,30.737,14.869,58.26,17.077,91.298c7.148,106.953,2.374,68.011,11.498,108.897c-11.903-2.354-6.903-13.912-10.917-20.563
		c0.145-0.232,0.268-0.425,0.376-0.595c-0.005,0.284-0.011,0.567-0.016,0.851c2.686-0.928,1.421-1.931,0.11-2.935
		c-5.482-18.521-7.011-37.774-10.515-56.66l0.233-0.212c-13.617-86.904-13.62-108.579-23.308-103.249
		c-3.035,1.67-2.081,3.758-1.423,6.464c7.308,30.059,6.191,61.347,13.17,91.484c0.626,2.702,1.187,6.059-1.743,8.467
		c-6.874-10.502-2.047-23.389-7.088-34.201l0.191,0.002c-4.152-20.012-7.647-40.235-12.751-60.044
		c-4.641-18.012-1.938-37.702-13.312-54.272c-2.47,22.777,9.273,44.161,5.653,67.243c-19.9-92.492-21.257-82.824-1.827-87.837
		c2.303-0.594,6.016-0.452,5.999-3.735c-0.052-9.73,11.165-7.542,11.79,0.814C459.312,1162.123,471.239,1175.276,473.929,1191.603z
		 M524.535,1141.708c2.404-1.043,1.118-1.632,4.947,1.6C525.132,1144.814,526.264,1145.57,524.535,1141.708z M538.517,1141.543
		c13.043-2.565,25.25-9.793,39.153-7.57C565.972,1144.026,551.868,1140.701,538.517,1141.543z M577.783,1133.979
		c1.961-0.564,3.923-1.127,5.884-1.691C582.247,1134.434,580.009,1134.191,577.783,1133.979z M584.35,1132.059
		c2.799-1.642,5.847-1.701,8.911-1.66C590.355,1131.307,587.705,1133.934,584.35,1132.059z M594.747,1129.66
		c-0.047-4.773,3.338-4.582,6.288-4.6C597.549,1127.39,595.85,1127.1,594.747,1129.66z M605.361,1121.661
		c1.193-3.308,4.218-3.832,7.019-4.696C610.454,1119.141,608.446,1121.199,605.361,1121.661z M613.269,1116.332
		c2.363-3.974,5.192-6.798,10.328-4.113C620.154,1113.59,616.711,1114.961,613.269,1116.332z M651.883,1088.019
		c-5.262,12.82-20.181,14.414-28.183,24.097c-0.497-2.465-0.729-4.65,1.982-6.433c4.687-3.084,26.581-17.962,26.705-18.029
		C652.219,1087.776,652.051,1087.898,651.883,1088.019z M687.496,1061.835c-0.841-2.082-1.506-1.065,1.948-4.078
		c0.248,0.697,0.496,1.395,0.89,2.503C689.426,1060.764,688.461,1061.299,687.496,1061.835z M695.684,1054.97
		c-0.112-0.191-0.224-0.382-0.336-0.573c0.208,0.092,0.416,0.184,0.624,0.276c2.248-3.823,23.953-42.347,49.078-69.757
		C732.523,1011.004,718.078,1035.753,695.684,1054.97z M749.23,970.303c0.017-0.036,0.035-0.073,0.053-0.109
		c0.023,1.066,0.047,2.132,0.07,3.197C747.317,972.694,749.462,972.569,749.23,970.303z M749.284,970.191
		c2.104-4.384,4.212-8.755,6.32-13.126C753.579,966.85,752.704,968.642,749.284,970.191z M755.919,955.525
		c0.332-4.687,0.123-4.047,0.819-4.1C756.442,952.918,756.172,954.277,755.919,955.525z M758.604,937.062
		c-1.828-1.639-2.01-0.642,0.448-4.399C759.68,933.934,759.867,932.742,758.604,937.062z M759.953,924.506
		c-0.015-0.022-0.024-0.038-0.04-0.061c0.023,0.017,0.043,0.027,0.066,0.043C759.971,924.494,759.962,924.5,759.953,924.506z
		 M762.496,912.894c-3.925-9.603,1.788-18.671-2.704-27.52c-10.07,26.01-9.72,54.607-20.184,80.368l-0.214-0.205
		c0.04,0.368,0.036,0.531,0.071,0.565c-0.004,0.011-0.008,0.021-0.013,0.032l0.04-0.03c0.043-0.01,0.119-0.091,0.276-0.21
		c-6.493,24.286-21.1,44.182-37.596,61.901c-16.272,17.479-21.026,43.33-43.665,56.851c-3.309-14.204-3.108-9.184-46.203,21.685
		l0.062-0.068c0.043-0.034,0.096-0.106,0.192-0.213l-0.617-0.21c0.151,0.203,0.234,0.326,0.294,0.39
		c-21.216,11.861-66.559,24.573-67.389,23.174c-23.821,7.155-47.877,5.929-72.029,2.139c-10.364-1.626,1.82-2.089-12.128-30.95
		c-2.284-4.726,0.012-9.197,3.815-12.672l-0.075,0.084c-0.055,0.032-0.087,0.098-0.161,0.18c0.3,0.009,0.601,0.018,0.901,0.027
		c-0.292-0.128-0.464-0.193-0.575-0.217c9.774-5.361,17.774-12.942,25.726-20.583l0.275,0.329c0.004-0.415,0.03-0.568-0.015-0.579
		c0.009-0.009,0.018-0.017,0.027-0.026l-0.035,0.025c-0.04,0.005-0.122,0.085-0.292,0.203c24.26-17.914,47.464-37.126,70.1-57.036
		c0.037-0.031,0.075-0.064,0.112-0.096c0.833,0.829,1.667,1.659,2.5,2.489c-0.015,0.007-0.024,0.013-0.039,0.02
		c0.039,0.019,0.074,0.035,0.112,0.054c0.037,0.037,0.074,0.073,0.111,0.11c0-0.019,0.001-0.038,0.001-0.057
		c18.879,9.054,17.721,6.569,32.47-8.031c10.41-10.305,19.007-22.695,31.063-31.33c13.228-9.474-9.17-20.592,13.34-34.964
		c14.75-9.417,23.2-24.85,38.121-34.348c12.302-7.831,25.979-9.83,38.263-16.167l-0.011,0.011c-0.022-0.002-0.083,0.082-0.252,0.251
		l0.271-0.006c-0.005-0.077-0.004-0.129-0.004-0.17c9.58-6.725,22.555-5.667,31.609-13.702c0.802-0.711,3.006,0.014,3.64-0.721
		c14.193-16.457,13.285-9.142,9.245,5.541c-1.393,5.063,5.276,4.438,8.013,6.716c0.01-0.259,0.019-0.517,0.029-0.776
		c0.052,0.16,0.104,0.319,0.157,0.479C764.497,893.715,766.557,903.649,762.496,912.894z"/>
	<path d="M486.046,667.675c-0.06-1.833-1.293-3.126-3.351-3.149c-7.929-0.087,6.618,43.177,13.148,54.514
		C498.539,700.542,486.625,685.337,486.046,667.675z"/>
	<path d="M458.208,640.297c-2.771,12.538,5.139,21.559,10.2,31.564C467.702,660.534,464.301,650.031,458.208,640.297z"/>
	<path d="M430.334,619.724c1.46,6.97,1.864,14.631,11.968,17.849c-2.657-6.541-5.09-13.19-8.16-19.531
		C433.529,616.778,430.051,618.372,430.334,619.724z"/>
	<path d="M453.121,672.821c1.233,6.778,0.154,14.788,8.627,17.782C462.939,682.611,459.923,676.752,453.121,672.821z"/>
	<path d="M461.816,690.778c-0.053,0.053-0.105,0.105-0.105,0.105c0.073-0.006,0.135-0.002,0.206-0.005
		c0.004-0.07,0.001-0.135,0.007-0.208c0.001-0.001-0.052,0.052-0.105,0.106l0.107-0.107c-0.061-0.021-0.117-0.045-0.178-0.066
		c-0.014,0.095-0.021,0.185-0.036,0.281L461.816,690.778z"/>
	<path d="M481.443,713.699c2.946,0.559,3.495-1.662,3.514-4.083c-1.948-2.567-0.16-7.451-4.721-8.332
		C474.396,700.154,476.462,712.754,481.443,713.699z"/>
	<path d="M428.252,612.862c0.164,3.284,8.072,5.859,2.719-3.814C429.38,611.174,428.212,612.049,428.252,612.862z"/>
	<path d="M337.134,1038.636c-0.003-0.906-0.005-1.813-0.007-2.72C337.005,1036.893,334.41,1036.934,337.134,1038.636z"/>
	<path d="M708.699,1059.589c-0.061-0.16-0.056-0.206-0.143-0.107l0.072-0.087c-0.004,0.002-0.009,0.006-0.014,0.008
		c-0.074,0.093-0.152,0.184-0.225,0.278L708.699,1059.589z"/>
	<path d="M371.201,397.276c-0.225-0.073-0.325-0.123-0.338-0.11l-0.01-0.013c0.002,0.016,0.003,0.032,0.005,0.048
		c0.073,0.085,0.144,0.172,0.217,0.255L371.201,397.276z"/>
	<path d="M249.44,506.005l0.387-0.444l-0.06-0.26c-0.018,0.017-0.031,0.035-0.049,0.052c0.013,0.025,0.025,0.049,0.039,0.074
		C249.697,505.418,249.616,505.641,249.44,506.005z"/>
	<path d="M329.29,514.316c0,0,0.281-0.24,0.276-0.245C329.562,514.067,329.29,514.316,329.29,514.316z"/>
	<path d="M463.998,693.335c0.493-1.871-0.373-2.537-2.081-2.458C461.843,692.342,462.382,693.291,463.998,693.335z"/>
	<path d="M464.171,693.346c-0.063,0.001-0.113-0.009-0.173-0.011c-0.01,0.037-0.011,0.066-0.022,0.103L464.171,693.346z"/>
	<path d="M463.976,693.439l0.723,0.317C464.393,693.507,464.259,693.304,463.976,693.439z"/>
	<path d="M589.422,804.331c-0.408,0.428-0.492,0.542-0.441,0.638l-0.083-0.092c0.016,0.054,0.034,0.107,0.05,0.161
		c0.067,0.036,0.127,0.075,0.194,0.11C589.235,804.876,589.329,804.604,589.422,804.331z"/>
	<path d="M469.36,1532.141c0.232,0.066,0.336,0.114,0.349,0.099l0.009,0.012c-0.038-0.089-0.06-0.178-0.095-0.268
		c-0.043-0.014-0.087-0.023-0.13-0.037L469.36,1532.141z"/>
	<path d="M325.719,907.924c-6.137,1.246-12.794,2.425-19.347,4.03c-4.397,1.077-5.724,8.528,1.037,7.892
		c1.002-0.094,29.313,0.253,27.727-8.963C334.351,906.32,329.366,908.814,325.719,907.924z"/>
	<path d="M200.748,1218.447c-4.24,0.01-9.711,9.946-2.335,10.013C207.024,1228.539,206.76,1218.433,200.748,1218.447z"/>
	<path d="M186.139,1265.881c-0.667,11.328,15.227-0.647,3.74-4.221C187.069,1261.688,186.272,1263.624,186.139,1265.881z"/>
	<path d="M105.264,460.312c2.128,3.131,5.778,7.269,3.628,12.276c2.054,0.415,3.828,1.228,4.46,3.521
		c2.445,8.88,10.497,14.828,11.576,24.908c0.675,6.31,8.052,7.531,13.744,5.018c7.891-3.483-0.925-6.417-0.755-9.476
		c0.721-12.95-18.178-17.236-13.776-31.692c0,0-9.669-4.751-10.376-6.417C78.66,375.7,80.843,371.451,75.126,373.684
		c-10.443,4.079,15.711,37.19,15.553,57.479C101.055,437.988,99.059,451.182,105.264,460.312z M117.568,467.272
		c0.79,0.356,0.816-0.035,0.484,1.319C117.139,468.263,117.117,468.638,117.568,467.272z"/>
	<path d="M108.525,472.823c0.089,0.011,0.166,0.031,0.257,0.04c0.043-0.093,0.071-0.183,0.11-0.274
		c-0.123-0.025-0.244-0.054-0.369-0.076C108.521,472.616,108.525,472.719,108.525,472.823z"/>
	<path d="M108.525,472.823c-7.288-0.878-8.161-7.408-8.491-12.235c-0.766-11.223-9.352-15.981-9.352-29.32
		c0-0.034-0.003-0.07-0.003-0.104c-0.111-0.073-0.215-0.149-0.328-0.22l0.331,0.325c-1.515-0.579-4.246-0.974-4.364-1.763
		c-2.342-15.584-11.831-28.599-15.476-43.65c-0.707-2.92-1.46-4.907-4.744-4.602c-15.898,1.481,43.445,117.226,48.038,130.393
		C132.29,511.851,108.562,492.636,108.525,472.823z"/>
	<path d="M70.045,433.253c-0.319,0.312-0.391,0.349-0.3,0.435l-0.08-0.066c0.053,0.064,0.115,0.127,0.171,0.191
		c0.029,0.007,0.057,0.014,0.087,0.021L70.045,433.253z"/>
	<path d="M103.426,189.443c-0.076,0.193-0.125,0.279-0.117,0.291l-0.016,0.012c0.005-0.004,0.01-0.008,0.015-0.011
		c0.008,0.011,0.083-0.059,0.247-0.185c0.01-0.008,0.02-0.015,0.03-0.023c0-0.001,0-0.001,0-0.002L103.426,189.443z"/>
	<path d="M537.1,971.169c-0.076,0.339-0.151,0.678-0.227,1.017C536.894,972.109,537.158,971.224,537.1,971.169z"/>
	<path d="M461.652,992.156c0.196-0.047,0.28-0.047,0.272-0.08l0.017,0.016c-0.017-0.017-0.032-0.036-0.049-0.053
		c-0.012-0.013-0.016-0.022-0.038-0.041c-0.032-0.034-0.063-0.068-0.094-0.102c-0.03-0.022-0.059-0.043-0.088-0.065L461.652,992.156
		z"/>
	<path d="M306.943,409.056c-6.987,4.292-19.296-0.629-21.851,12.389c-1.837,9.361,6.814,12.628,11.751,17.714
		c2.895,2.982,7.369,4.508,11.773,1.329c4.834-3.49-0.037-5.483-0.819-8.329c-3.534-12.862,14.754-3.585,12.219-16.651
		C318.551,407.965,311.997,411.17,306.943,409.056z"/>
	<path d="M291.048,366.986c0.991-14.96-44.245-2.781-14.587,6.98C281.057,370.323,290.451,375.998,291.048,366.986z"/>
	<path d="M303.359,402.818c4.117-0.345,10.103,1.183,10.338-4.343c0.234-5.505-17.552-7.21-17.826,0.506
		C295.679,404.419,300.592,402.109,303.359,402.818z"/>
	<path d="M250.177,384.2c1.617,1.765,8.863,0.222,0.041-14.053C248.724,374.927,246.073,379.722,250.177,384.2z"/>
	<path d="M259.391,417.859c-0.149,0.139-0.193,0.152-0.097,0.226l-0.082-0.059c0.023,0.044,0.046,0.089,0.068,0.133
		c0.081,0.03,0.161,0.06,0.243,0.09L259.391,417.859z"/>
	<path d="M447.543,1152.745c-9.472,0.817,3.415,21.446,3.098,37.327c-0.022,1.099,4.918,6.987,6.12-1.428
		C451.923,1154.771,452.819,1152.29,447.543,1152.745z"/>
	<path d="M451.618,1489.644c-0.016,0.18,1.722,0.813,1.827,0.663c0.597-0.856,0.944-1.886,1.375-2.856
		c-0.679-0.227-1.358-0.454-2.407-0.805C452.109,1487.663,451.709,1488.639,451.618,1489.644z"/>
	<path d="M473.453,1430.676c0.342-0.731,0.683-1.462,1.024-2.193c-0.309,0.265-0.875,0.684-1.897,1.358
		C472.871,1430.119,473.162,1430.398,473.453,1430.676z"/>
	<path d="M459.183,1443.397c-0.129,0.309-0.202,0.434-0.184,0.449l-0.018,0.01c0.01-0.003,0.018-0.008,0.028-0.011
		c0.007-0.001,0.016-0.004,0.029-0.011c0.104-0.034,0.193-0.078,0.293-0.115c-0.005-0.019-0.009-0.037-0.014-0.056L459.183,1443.397
		z"/>
	<path d="M451.757,1462.062c-0.166-0.185-0.188-0.24-0.251-0.169l0.045-0.061c-0.071,0.076-0.148,0.15-0.224,0.224
		c-0.004,0.03-0.003,0.058-0.007,0.088L451.757,1462.062z"/>
	<path d="M137.681,1495.857c-0.265-0.232-0.297-0.299-0.372-0.21l0.051-0.071c-0.08,0.088-0.147,0.175-0.222,0.263
		c-0.002,0.019-0.005,0.038-0.008,0.058L137.681,1495.857z"/>
	<path d="M505.266,1399.49l0.251-0.853C505.209,1398.853,505.285,1399.005,505.266,1399.49z"/>
</g>
</svg>
